<svg xmlns="http://www.w3.org/2000/svg" version="1.1" xmlns:xlink="http://www.w3.org/1999/xlink" xmlns:svgjs="http://svgjs.dev/svgjs" width="100%" height="100%" viewBox="0 0 1000 600"><rect width="1000" height="600" x="0" y="0" fill="#ffffff"/><g><rect width="333.3333333333333" height="333.3333333333333" rx="13.333333333333334" ry="13.333333333333334" y="77.77780045403293" fill="#ff735c" transform="matrix(2.25000013732911,0,0,2.25000013732911,0,-250.00003738403575)" x="55.555564880371094"/><path d="M169.1232699740808 319.4444618225092L154.30556124821226 319.4444618225092L154.30556124821226 189.60070838282437L169.1232699740808 189.60070838282437L169.1232699740808 319.4444618225092ZM191.88368724369263 182.85591653748173L131.41493564181775 182.85591653748173L131.41493564181775 169.44445784886608L191.88368724369263 169.44445784886608L191.88368724369263 182.85591653748173ZM313.0295237862946 319.4444618225092L281.7013979563827 319.4444618225092L273.18577273079575 265.64237706390736L261.93577243277247 182.75174986805558L241.57118855996188 182.75174986805558L241.57118855996188 169.44445784886608L272.7951477204477 169.44445784886608L280.39931458855597 219.02779249570918L292.76910658291024 305.9548781318239L313.0295237862946 305.9548781318239L313.0295237862946 319.4444618225092ZM256.38889728583047 319.4444618225092L241.57118855996188 319.4444618225092L241.57118855996188 189.88716672374628L254.98264724857756 189.88716672374628L255.55556393042136 262.3611269769839L256.38889728583047 319.4444618225092ZM313.0295237862946 298.8194612761332L299.43577342618323 298.8194612761332L298.8628567443395 222.69966759298066L298.107648391 169.44445784886608L313.0295237862946 169.44445784886608L313.0295237862946 298.8194612761332Z " fill="#ffff" transform="matrix(2.25000013732911,0,0,2.25000013732911,0,-250.00003738403575)"/><path d="MNaN 244.4444580078119 " fill="#406672c9" transform="matrix(2.25000013732911,0,0,2.25000013732911,0,-250.00003738403575)"/></g></svg>